<svg width="382" height="500" viewBox="0 0 382 500" fill="none" xmlns="http://www.w3.org/2000/svg">
<path d="M190.864 467.903C103.083 467.903 31.9235 396.743 31.9235 308.962C31.9235 221.182 103.083 150.02 190.864 150.02C278.646 150.02 349.806 221.182 349.806 308.962C349.806 396.743 278.646 467.903 190.864 467.903ZM190.864 118.097C124.547 118.097 66.1319 151.922 31.9235 203.257V0H0V500H31.9235V414.666C66.1319 466.003 124.547 499.827 190.864 499.827C296.276 499.827 381.73 414.374 381.73 308.962C381.73 203.55 296.276 118.097 190.864 118.097Z" fill="#BF2C34"/>
<path d="M279.467 344.803C265.289 379.816 230.961 404.515 190.864 404.515C138.092 404.515 95.3113 361.735 95.3113 308.963C95.3113 256.19 138.092 213.409 190.864 213.409C230.961 213.409 265.289 238.108 279.467 273.12L309.165 261.108C290.236 214.358 244.401 181.381 190.864 181.381C120.402 181.381 63.2827 238.5 63.2827 308.963C63.2827 379.424 120.402 436.543 190.864 436.543C244.401 436.543 290.236 403.567 309.165 356.818L279.467 344.803Z" fill="#BF2C34"/>
<path d="M190.864 340.807C173.277 340.807 159.021 326.549 159.021 308.963C159.021 291.376 173.277 277.119 190.864 277.119C204.227 277.119 215.66 285.353 220.385 297.021L249.905 285.08C243.432 269.081 230.746 256.394 214.748 249.923C182.14 236.732 145.014 252.472 131.824 285.08C118.634 317.686 134.374 354.812 166.982 368.002C199.589 381.192 236.714 365.452 249.905 332.844L220.385 320.904C215.66 332.571 204.227 340.807 190.864 340.807Z" fill="#BF2C34"/>
</svg>
